<?xml version="1.0" encoding="iso-8859-1"?>
<!-- Generator: Adobe Illustrator 19.0.0, SVG Export Plug-In . SVG Version: 6.00 Build 0)  -->
<svg version="1.1" id="Capa_1" xmlns="http://www.w3.org/2000/svg" xmlns:xlink="http://www.w3.org/1999/xlink" x="0px" y="0px"
	 viewBox="0 0 512 512" style="enable-background:new 0 0 512 512;" xml:space="preserve">
<g>
	<g>
		<path d="M497,211h-20.791c-5.746-28.054-16.894-54.91-32.728-78.843l14.044-14.044c5.857-5.858,5.857-15.355,0-21.213
			L415.1,54.475c-5.857-5.859-15.354-5.857-21.213,0l-14.044,14.044C355.91,52.685,329.054,41.536,301,35.791V15
			c0-8.284-6.716-15-15-15h-60c-8.284,0-15,6.716-15,15v20.791c-28.054,5.746-54.91,16.894-78.843,32.728l-14.044-14.044
			c-5.857-5.857-15.355-5.858-21.213,0L54.475,96.9c-5.858,5.858-5.858,15.355,0,21.213l14.044,14.044
			C52.685,156.09,41.536,182.946,35.791,211H15c-8.284,0-15,6.716-15,15v60c0,8.284,6.716,15,15,15h20.79
			c5.745,28.054,16.893,54.909,32.727,78.843l-14.042,14.042c-5.858,5.857-5.858,15.355,0,21.213L96.9,457.525
			c2.813,2.813,6.628,4.394,10.607,4.394c3.978,0,7.793-1.58,10.606-4.393l14.044-14.044c23.933,15.834,50.789,26.982,78.843,32.728
			V497c0,8.284,6.716,15,15,15h60c8.284,0,15-6.716,15-15v-20.791c28.054-5.746,54.91-16.894,78.843-32.728l14.044,14.044
			c2.813,2.813,6.628,4.393,10.606,4.393c3.979,0,7.794-1.581,10.607-4.394l42.425-42.427c5.857-5.858,5.857-15.355,0-21.213
			l-14.042-14.042c15.834-23.934,26.982-50.79,32.727-78.843H497c8.284,0,15-6.716,15-15v-60C512,217.716,505.284,211,497,211z
			 M482,271h-18.395c-7.458,0-13.784,5.48-14.847,12.862c-4.612,32.029-17.34,62.691-36.807,88.671
			c-4.475,5.972-3.879,14.325,1.397,19.601l12.356,12.357l-21.213,21.214l-12.358-12.358c-5.276-5.275-13.628-5.873-19.601-1.397
			c-25.979,19.466-56.642,32.194-88.672,36.809c-7.382,1.063-12.861,7.389-12.861,14.847V482h-30v-18.395
			c0-7.458-5.479-13.783-12.861-14.847c-32.03-4.614-62.693-17.342-88.672-36.809c-5.973-4.475-14.325-3.879-19.601,1.397
			l-12.358,12.358L86.294,404.49l12.357-12.357c5.277-5.276,5.872-13.629,1.397-19.601c-19.467-25.98-32.195-56.642-36.807-88.671
			C62.179,276.48,55.854,271,48.395,271H30v-30h18.395c7.458,0,13.783-5.479,14.847-12.861c4.614-32.03,17.342-62.693,36.809-88.672
			c4.475-5.972,3.879-14.325-1.397-19.601l-12.359-12.359l21.212-21.212l12.359,12.359c5.277,5.276,13.629,5.873,19.601,1.397
			c25.979-19.466,56.642-32.194,88.672-36.809C235.521,62.178,241,55.853,241,48.395V30h30v18.395
			c0,7.458,5.479,13.783,12.861,14.847c32.03,4.614,62.693,17.342,88.672,36.809c5.972,4.474,14.324,3.878,19.601-1.397
			l12.359-12.359l21.212,21.212l-12.359,12.359c-5.276,5.276-5.872,13.629-1.397,19.601c19.466,25.979,32.194,56.642,36.809,88.672
			c1.063,7.382,7.389,12.861,14.847,12.861H482V271z"/>
	</g>
</g>
<g>
	<g>
		<path d="M256,91c-90.981,0-165,74.019-165,165c0,90.984,74.041,165,165,165c90.94,0,165-73.997,165-165
			C421,165.019,346.981,91,256,91z M241,390.162c-10.399-1.155-20.445-3.496-30-6.884V271h30V390.162z M224.028,241L256,193.042
			L287.972,241H224.028z M301,383.278c-9.555,3.388-19.601,5.729-30,6.884V271h30V383.278z M331,368.194c0-4.643,0-104.92,0-112.194
			c0-3.039-1.001-6.093-2.575-8.405l-59.944-89.916c-5.918-8.877-19.02-8.913-24.962,0l-59.944,89.916
			c-0.01,0.014-0.019,0.029-0.029,0.043l-0.028,0.042c-0.047,0.07-0.083,0.145-0.128,0.215c-0.22,0.342-0.433,0.69-0.626,1.05
			C181.69,250.957,181,253.51,181,256c0,14.062,0,98.188,0,112.194c-36.154-24.248-60-65.487-60-112.194
			c0-74.439,60.561-135,135-135s135,60.561,135,135C391,302.708,367.154,343.947,331,368.194z"/>
	</g>
</g>
<g>
</g>
<g>
</g>
<g>
</g>
<g>
</g>
<g>
</g>
<g>
</g>
<g>
</g>
<g>
</g>
<g>
</g>
<g>
</g>
<g>
</g>
<g>
</g>
<g>
</g>
<g>
</g>
<g>
</g>
</svg>
